<svg id="talk" xmlns="http://www.w3.org/2000/svg" width="26.03" height="24.316" viewBox="0 0 26.03 24.316">
  <path id="Path_8" data-name="Path 8" d="M22.825,2.163h-.039v-.04A3.209,3.209,0,0,0,19.58-1.082H3.206A3.209,3.209,0,0,0,0,2.124v10.02a3.209,3.209,0,0,0,3.094,3.2v4.641L5.37,18.406a3.189,3.189,0,0,0,1.082.189H16.27l6.667,4.639V18.593a3.21,3.21,0,0,0,3.094-3.2V5.369a3.209,3.209,0,0,0-3.206-3.206Zm-21.3,9.981V2.124A1.682,1.682,0,0,1,3.206.443H19.58a1.682,1.682,0,0,1,1.681,1.68v10.02a1.682,1.682,0,0,1-1.681,1.681H9.283L4.619,17.069V13.824H3.206a1.682,1.682,0,0,1-1.681-1.681Zm22.98,3.245a1.682,1.682,0,0,1-1.681,1.681H21.412v3.245l-4.664-3.245H7.29l2.472-1.72H19.58a3.209,3.209,0,0,0,3.206-3.206V3.688h.039a1.682,1.682,0,0,1,1.681,1.68Zm0,0" transform="translate(-0.001 1.082)"/>
  <path id="Path_9" data-name="Path 9" d="M186.43,175.148h1.519v1.519H186.43Zm0,0" transform="translate(-178.848 -167.98)"/>
  <path id="Path_10" data-name="Path 10" d="M261.43,175.148h1.519v1.519H261.43Zm0,0" transform="translate(-250.797 -167.98)"/>
  <path id="Path_11" data-name="Path 11" d="M336.43,175.98h1.519V177.5H336.43Zm0,0" transform="translate(-322.747 -168.779)"/>
</svg>
